<!-- Generated by IcoMoon.io -->
<svg version="1.1" xmlns="http://www.w3.org/2000/svg" width="1024" height="1024" viewBox="0 0 1024 1024">
<path d="M393.987 905.838c-0.068 0-0.148 0.001-0.228 0.001-10.817 0-20.614-4.362-27.732-11.423l-354.38-354.38c-7.193-7.137-11.648-17.026-11.648-27.957s4.453-20.82 11.644-27.954l354.385-354.385c7.155-7.155 17.039-11.58 27.957-11.58 21.835 0 39.537 17.702 39.537 39.537 0 10.918-4.425 20.802-11.58 27.957v0l-326.819 326.425 326.819 326.425c7.193 7.137 11.648 17.026 11.648 27.957s-4.453 20.82-11.644 27.954l-0.002 0.002c-7.115 7.058-16.912 11.42-27.729 11.42-0.080 0-0.16 0-0.24-0.001h0.012z"></path>
<path d="M984.624 551.456h-945.019c-21.747 0-39.376-17.629-39.376-39.376s17.629-39.376 39.376-39.376v0h945.019c21.747 0 39.376 17.629 39.376 39.376s-17.629 39.376-39.376 39.376v0z"></path>
</svg>
