<svg version="1.1" xmlns="http://www.w3.org/2000/svg" width="1024" height="1024" viewBox="0 0 1024 1024">
<path fill="#000" d="M512 0c-282.77 0-512 229.23-512 512s229.23 512 512 512c282.77 0 512-229.23 512-512v0c-0.319-282.642-229.359-511.682-511.97-512h-0.030zM512 976c-256.26 0-464-207.74-464-464s207.74-464 464-464c256.26 0 464 207.74 464 464v0c-0.318 256.132-207.868 463.681-463.969 464h-0.031z"></path>
<path fill="#000" d="M736.96 286.32c-4.342-4.337-10.338-7.019-16.96-7.019s-12.618 2.682-16.96 7.019v0l-191.040 191.68-190.96-192c-4.351-4.351-10.361-7.042-17-7.042-13.278 0-24.042 10.764-24.042 24.042 0 6.639 2.691 12.649 7.042 17v0l191.040 192-191.040 192c-4.334 4.344-7.013 10.339-7.013 16.96 0 13.262 10.751 24.013 24.013 24.013 6.641 0 12.652-2.696 17-7.053v0l190.96-191.92 191.040 192c4.351 4.351 10.361 7.042 17 7.042 13.278 0 24.042-10.764 24.042-24.042 0-6.639-2.691-12.649-7.042-17v0l-191.12-192 191.12-192c4.242-4.325 6.86-10.257 6.86-16.799 0-6.583-2.65-12.547-6.942-16.883l0.002 0.002z"></path>
</svg>
