<!-- Generated by IcoMoon.io -->
<svg version="1.1" xmlns="http://www.w3.org/2000/svg" width="1024" height="1024" viewBox="0 0 1024 1024">
<path fill="#000" d="M586.524 512.713l420.848-418.549c20.177-19.972 20.177-52.306 0-72.227-20.126-19.972-52.817-19.972-72.942 0l-420.49 418.192-424.372-424.423c-20.126-20.177-52.817-20.177-72.942 0-20.126 20.228-20.126 52.97 0 73.147l424.066 424.117-425.598 423.249c-20.126 19.972-20.126 52.306 0 72.227 20.126 19.972 52.817 19.972 72.942 0l425.241-422.891 422.687 422.738c20.126 20.177 52.817 20.177 72.942 0 20.126-20.228 20.126-52.97 0-73.147l-422.38-422.431z"></path>
</svg>
