<svg version="1.1" xmlns="http://www.w3.org/2000/svg" width="2396" height="1024" viewBox="0 0 2396 1024">
    <path fill="#fff" d="M-0.027 0.023h2396.055v1023.955h-2396.055v-1023.955z"></path>
    <path fill="#000" d="M246.843 778.229v-497.058h105.395v410.022h201.61v87.036h-307.007zM1091.707 529.021c0 82.274-20.399 145.513-61.197 189.711s-99.277 66.297-175.432 66.297c-76.158 0-134.634-22.099-175.432-66.297s-61.197-107.66-61.197-190.39c0-82.731 20.399-145.855 61.197-189.373 41.024-43.745 99.73-65.617 176.112-65.617s134.746 21.984 175.092 65.957c40.571 43.971 60.857 107.208 60.857 189.713zM728.942 529.021c0 55.53 10.541 97.348 31.618 125.453 21.079 28.106 52.587 42.158 94.517 42.158 84.089 0 126.134-55.872 126.134-167.612 0-111.969-41.818-167.954-125.455-167.954-41.931 0-73.551 14.165-94.857 42.498-21.304 28.106-31.958 69.924-31.958 125.455zM1383.413 499.102h197.191v257.709c-31.958 10.426-62.103 17.679-90.436 21.759-28.106 4.307-56.891 6.459-86.356 6.459-75.023 0-132.366-21.984-172.032-65.957-39.438-44.198-59.158-107.548-59.158-190.050 0-80.237 22.894-142.795 68.679-187.673 46.010-44.878 109.7-67.317 191.070-67.317 50.999 0 100.184 10.199 147.554 30.598l-35.017 84.316c-36.266-18.132-74.006-27.198-113.217-27.198-45.558 0-82.049 15.3-109.475 45.898s-41.138 71.736-41.138 123.416c0 53.944 10.994 95.195 32.98 123.754 22.212 28.333 54.397 42.498 96.555 42.498 21.986 0 44.313-2.265 66.977-6.799v-103.695h-94.175v-87.716zM2150.422 529.021c0 82.274-20.397 145.513-61.191 189.711-40.815 44.198-99.285 66.297-175.442 66.297s-134.634-22.099-175.432-66.297c-40.796-44.198-61.195-107.66-61.195-190.39s20.399-145.855 61.195-189.373c41.026-43.745 99.73-65.617 176.114-65.617s134.744 21.984 175.088 65.957c40.569 43.971 60.864 107.208 60.864 189.713zM1787.656 529.021c0 55.53 10.539 97.348 31.618 125.453s52.584 42.158 94.515 42.158c84.091 0 126.134-55.872 126.134-167.612 0-111.969-41.818-167.954-125.453-167.954-41.933 0-73.551 14.165-94.857 42.498-21.304 28.106-31.958 69.924-31.958 125.455z"></path>
</svg>
