<svg width="16" height="13" viewBox="0 0 16 13" fill="none" xmlns="http://www.w3.org/2000/svg">
<path fill-rule="evenodd" clip-rule="evenodd" d="M13.9454 10.2792H13.2434C13.5274 9.67124 13.7084 9.01924 13.7784 8.35224H12.8494V7.06724H13.7784C13.7124 6.43324 13.5454 5.81424 13.2854 5.23224L12.4824 5.69624L11.8394 4.58324L12.6414 4.12024C12.2664 3.60524 11.8134 3.15324 11.2994 2.77724L10.8364 3.58024L9.72337 2.93724L10.1874 2.13324C9.60537 1.87324 8.98637 1.70724 8.35237 1.64024V2.57024H7.06737V1.64024C6.43337 1.70724 5.81437 1.87424 5.23237 2.13324L5.69537 2.93724L4.58337 3.58024L4.12037 2.77724C3.60637 3.15324 3.15337 3.60524 2.77737 4.12024L3.57937 4.58324L2.93737 5.69624L2.13337 5.23224C1.87337 5.81424 1.70737 6.43324 1.64037 7.06724H2.57037V8.35224H1.64037C1.71137 9.01924 1.89137 9.67124 2.17537 10.2792H1.47337C0.0523664 6.83624 1.69237 2.89124 5.13637 1.47024C8.58037 0.0502442 12.5244 1.68924 13.9454 5.13324C14.6254 6.78124 14.6254 8.63224 13.9454 10.2792ZM9.37837 9.31524C8.84037 10.2342 7.65937 10.5422 6.74137 10.0042C5.83137 9.47024 5.51937 8.30424 6.04037 7.38824C6.57137 6.46724 9.63637 5.01324 9.63637 5.01324C9.63637 5.01324 9.91037 8.39524 9.37837 9.31524ZM7.70937 0.000244141C3.45137 0.00124414 -0.000633572 3.45324 0.000366428 7.71224C0.000366428 9.20424 0.433366 10.6642 1.24737 11.9152C1.36537 12.0962 1.56837 12.2072 1.78537 12.2072H13.6334C13.8514 12.2072 14.0534 12.0962 14.1724 11.9152C16.4944 8.34524 15.4824 3.56924 11.9134 1.24724C10.6624 0.433244 9.20137 0.000244141 7.70937 0.000244141Z"/>
</svg>
