<svg version="1.1" xmlns="http://www.w3.org/2000/svg" width="1024" height="1024" viewBox="0 0 1024 1024">
<path fill="#f5f5f5" d="M1006.342 847.449h-988.686c-9.75 0-17.656-7.906-17.656-17.656v-635.585c0-9.75 7.906-17.656 17.656-17.656h988.688c9.75 0 17.656 7.906 17.656 17.656v635.585c-0.002 9.752-7.908 17.656-17.658 17.656z"></path>
<path fill="#ff4b55" d="M1023.998 228.163h-1023.998v-33.954c0-9.75 7.906-17.656 17.656-17.656h988.688c9.75 0 17.656 7.906 17.656 17.656l-0.002 33.954z"></path>
<path fill="#ff4b55" d="M0 382.982h1023.998v51.608h-1023.998v-51.608z"></path>
<path fill="#ff4b55" d="M0 279.762h1023.998v51.608h-1023.998v-51.608z"></path>
<path fill="#ff4b55" d="M1023.998 537.806h-1006.342c-9.75 0-17.656-7.906-17.656-17.656v-33.954h1023.998v51.61z"></path>
<path fill="#ff4b55" d="M0 692.642h1023.998v51.608h-1023.998v-51.608z"></path>
<path fill="#ff4b55" d="M1006.342 847.449h-988.686c-9.75 0-17.656-7.906-17.656-17.656v-33.952h1023.998v33.954c0 9.75-7.906 17.654-17.656 17.654z"></path>
<path fill="#ff4b55" d="M0 589.422h1023.998v51.608h-1023.998v-51.608z"></path>
<path fill="#41479b" d="M459.033 176.555h-441.377c-9.75 0-17.656 7.904-17.656 17.654v325.939c0 9.75 7.906 17.656 17.656 17.656h441.379c9.75 0 17.656-7.906 17.656-17.656v-325.939c-0.002-9.75-7.908-17.654-17.658-17.654z"></path>
<path fill="#f5f5f5" d="M49.578 217.077l3.908 11.72 12.354 0.094c1.6 0.014 2.262 2.054 0.976 3.004l-9.938 7.34 3.728 11.778c0.484 1.524-1.254 2.788-2.556 1.856l-10.050-7.182-10.050 7.184c-1.302 0.93-3.036-0.332-2.556-1.856l3.728-11.778-9.938-7.34c-1.286-0.952-0.624-2.99 0.976-3.004l12.354-0.094 3.908-11.72c0.504-1.52 2.648-1.52 3.156-0.002z"></path>
<path fill="#f5f5f5" d="M49.578 278.384l3.908 11.72 12.354 0.094c1.6 0.014 2.262 2.054 0.976 3.004l-9.938 7.34 3.728 11.778c0.484 1.524-1.254 2.788-2.556 1.856l-10.050-7.182-10.050 7.184c-1.302 0.93-3.036-0.332-2.556-1.856l3.728-11.778-9.938-7.34c-1.286-0.952-0.624-2.99 0.976-3.004l12.354-0.094 3.908-11.72c0.504-1.518 2.648-1.518 3.156-0.002z"></path>
<path fill="#f5f5f5" d="M49.578 339.692l3.908 11.72 12.354 0.094c1.6 0.014 2.262 2.054 0.976 3.004l-9.938 7.34 3.728 11.778c0.484 1.524-1.254 2.788-2.556 1.856l-10.050-7.182-10.050 7.184c-1.302 0.93-3.036-0.332-2.556-1.856l3.728-11.778-9.938-7.34c-1.286-0.952-0.624-2.99 0.976-3.004l12.354-0.094 3.908-11.72c0.504-1.518 2.648-1.518 3.156-0.002z"></path>
<path fill="#f5f5f5" d="M49.578 401.002l3.908 11.72 12.354 0.094c1.6 0.014 2.262 2.054 0.976 3.004l-9.938 7.34 3.728 11.778c0.484 1.524-1.254 2.788-2.556 1.856l-10.050-7.182-10.050 7.184c-1.302 0.93-3.036-0.332-2.556-1.856l3.728-11.778-9.938-7.34c-1.286-0.952-0.624-2.99 0.976-3.004l12.354-0.094 3.908-11.72c0.504-1.52 2.648-1.52 3.156-0.002z"></path>
<path fill="#f5f5f5" d="M49.578 462.31l3.908 11.72 12.354 0.094c1.6 0.014 2.262 2.054 0.976 3.004l-9.938 7.34 3.728 11.778c0.484 1.524-1.254 2.788-2.556 1.856l-10.050-7.182-10.050 7.184c-1.302 0.93-3.036-0.332-2.556-1.856l3.728-11.778-9.938-7.34c-1.286-0.952-0.624-2.99 0.976-3.004l12.354-0.094 3.908-11.72c0.504-1.522 2.648-1.522 3.156-0.002z"></path>
<path fill="#f5f5f5" d="M97.164 247.135l3.908 11.72 12.354 0.094c1.6 0.014 2.262 2.054 0.976 3.004l-9.938 7.34 3.728 11.778c0.484 1.524-1.254 2.788-2.556 1.856l-10.050-7.184-10.050 7.184c-1.302 0.93-3.036-0.332-2.556-1.856l3.728-11.778-9.938-7.34c-1.286-0.952-0.624-2.99 0.976-3.004l12.354-0.094 3.908-11.72c0.502-1.516 2.65-1.516 3.156 0z"></path>
<path fill="#f5f5f5" d="M97.164 308.444l3.908 11.72 12.354 0.094c1.6 0.014 2.262 2.054 0.976 3.004l-9.938 7.34 3.728 11.778c0.484 1.524-1.254 2.788-2.556 1.856l-10.050-7.184-10.050 7.184c-1.302 0.93-3.036-0.33-2.556-1.856l3.728-11.778-9.938-7.34c-1.286-0.952-0.624-2.99 0.976-3.004l12.354-0.094 3.908-11.72c0.502-1.518 2.65-1.518 3.156 0z"></path>
<path fill="#f5f5f5" d="M97.164 369.752l3.908 11.72 12.354 0.094c1.6 0.014 2.262 2.054 0.976 3.004l-9.938 7.34 3.728 11.778c0.484 1.524-1.254 2.788-2.556 1.856l-10.050-7.184-10.050 7.184c-1.302 0.93-3.036-0.332-2.556-1.856l3.728-11.778-9.938-7.34c-1.286-0.952-0.624-2.99 0.976-3.004l12.354-0.094 3.908-11.72c0.502-1.518 2.65-1.518 3.156 0z"></path>
<path fill="#f5f5f5" d="M97.164 431.060l3.908 11.72 12.354 0.094c1.6 0.014 2.262 2.054 0.976 3.004l-9.938 7.34 3.728 11.778c0.484 1.524-1.254 2.788-2.556 1.856l-10.050-7.184-10.050 7.184c-1.302 0.93-3.036-0.332-2.556-1.856l3.728-11.778-9.938-7.34c-1.286-0.952-0.624-2.99 0.976-3.004l12.354-0.094 3.908-11.72c0.502-1.516 2.65-1.516 3.156 0z"></path>
<path fill="#f5f5f5" d="M144.75 217.077l3.908 11.72 12.354 0.094c1.6 0.014 2.262 2.054 0.976 3.004l-9.938 7.34 3.728 11.778c0.484 1.524-1.254 2.788-2.556 1.856l-10.050-7.184-10.050 7.184c-1.302 0.93-3.036-0.332-2.556-1.856l3.728-11.778-9.938-7.34c-1.286-0.952-0.624-2.99 0.976-3.004l12.354-0.094 3.908-11.72c0.504-1.518 2.65-1.518 3.156 0z"></path>
<path fill="#f5f5f5" d="M144.75 278.384l3.908 11.72 12.354 0.094c1.6 0.014 2.262 2.054 0.976 3.004l-9.938 7.34 3.728 11.778c0.484 1.524-1.254 2.788-2.556 1.856l-10.050-7.184-10.050 7.184c-1.302 0.93-3.036-0.332-2.556-1.856l3.728-11.778-9.938-7.34c-1.286-0.952-0.624-2.99 0.976-3.004l12.354-0.094 3.908-11.72c0.504-1.516 2.65-1.516 3.156 0z"></path>
<path fill="#f5f5f5" d="M144.75 339.692l3.908 11.72 12.354 0.094c1.6 0.014 2.262 2.054 0.976 3.004l-9.938 7.34 3.728 11.778c0.484 1.524-1.254 2.788-2.556 1.856l-10.050-7.184-10.050 7.184c-1.302 0.93-3.036-0.332-2.556-1.856l3.728-11.778-9.938-7.34c-1.286-0.952-0.624-2.99 0.976-3.004l12.354-0.094 3.908-11.72c0.504-1.516 2.65-1.516 3.156 0z"></path>
<path fill="#f5f5f5" d="M144.75 401.002l3.908 11.72 12.354 0.094c1.6 0.014 2.262 2.054 0.976 3.004l-9.938 7.34 3.728 11.778c0.484 1.524-1.254 2.788-2.556 1.856l-10.050-7.184-10.050 7.184c-1.302 0.93-3.036-0.332-2.556-1.856l3.728-11.778-9.938-7.34c-1.286-0.952-0.624-2.99 0.976-3.004l12.354-0.094 3.908-11.72c0.504-1.518 2.65-1.518 3.156 0z"></path>
<path fill="#f5f5f5" d="M144.75 462.31l3.908 11.72 12.354 0.094c1.6 0.014 2.262 2.054 0.976 3.004l-9.938 7.34 3.728 11.778c0.484 1.524-1.254 2.788-2.556 1.856l-10.050-7.184-10.050 7.184c-1.302 0.93-3.036-0.332-2.556-1.856l3.728-11.778-9.938-7.34c-1.286-0.952-0.624-2.99 0.976-3.004l12.354-0.094 3.908-11.72c0.504-1.52 2.65-1.52 3.156 0z"></path>
<path fill="#f5f5f5" d="M192.338 247.135l3.908 11.72 12.354 0.094c1.6 0.014 2.262 2.054 0.976 3.004l-9.938 7.34 3.728 11.778c0.484 1.524-1.254 2.788-2.556 1.856l-10.050-7.184-10.050 7.184c-1.302 0.93-3.036-0.332-2.556-1.856l3.728-11.778-9.938-7.34c-1.286-0.952-0.624-2.99 0.976-3.004l12.354-0.094 3.908-11.72c0.502-1.516 2.65-1.516 3.156 0z"></path>
<path fill="#f5f5f5" d="M192.338 308.444l3.908 11.72 12.354 0.094c1.6 0.014 2.262 2.054 0.976 3.004l-9.938 7.34 3.728 11.778c0.484 1.524-1.254 2.788-2.556 1.856l-10.050-7.184-10.050 7.184c-1.302 0.93-3.036-0.33-2.556-1.856l3.728-11.778-9.938-7.34c-1.286-0.952-0.624-2.99 0.976-3.004l12.354-0.094 3.908-11.72c0.502-1.518 2.65-1.518 3.156 0z"></path>
<path fill="#f5f5f5" d="M192.338 369.752l3.908 11.72 12.354 0.094c1.6 0.014 2.262 2.054 0.976 3.004l-9.938 7.34 3.728 11.778c0.484 1.524-1.254 2.788-2.556 1.856l-10.050-7.184-10.050 7.184c-1.302 0.93-3.036-0.332-2.556-1.856l3.728-11.778-9.938-7.34c-1.286-0.952-0.624-2.99 0.976-3.004l12.354-0.094 3.908-11.72c0.502-1.518 2.65-1.518 3.156 0z"></path>
<path fill="#f5f5f5" d="M192.338 431.060l3.908 11.72 12.354 0.094c1.6 0.014 2.262 2.054 0.976 3.004l-9.938 7.34 3.728 11.778c0.484 1.524-1.254 2.788-2.556 1.856l-10.050-7.184-10.050 7.184c-1.302 0.93-3.036-0.332-2.556-1.856l3.728-11.778-9.938-7.34c-1.286-0.952-0.624-2.99 0.976-3.004l12.354-0.094 3.908-11.72c0.502-1.516 2.65-1.516 3.156 0z"></path>
<path fill="#f5f5f5" d="M239.924 217.077l3.908 11.72 12.354 0.094c1.6 0.014 2.262 2.054 0.976 3.004l-9.938 7.34 3.728 11.778c0.484 1.524-1.254 2.788-2.556 1.856l-10.052-7.184-10.050 7.184c-1.302 0.93-3.036-0.332-2.556-1.856l3.728-11.778-9.938-7.34c-1.286-0.952-0.624-2.99 0.976-3.004l12.354-0.094 3.908-11.72c0.506-1.518 2.652-1.518 3.158 0z"></path>
<path fill="#f5f5f5" d="M239.924 278.384l3.908 11.72 12.354 0.094c1.6 0.014 2.262 2.054 0.976 3.004l-9.938 7.34 3.728 11.778c0.484 1.524-1.254 2.788-2.556 1.856l-10.052-7.184-10.050 7.184c-1.302 0.93-3.036-0.332-2.556-1.856l3.728-11.778-9.938-7.34c-1.286-0.952-0.624-2.99 0.976-3.004l12.354-0.094 3.908-11.72c0.506-1.516 2.652-1.516 3.158 0z"></path>
<path fill="#f5f5f5" d="M239.924 339.692l3.908 11.72 12.354 0.094c1.6 0.014 2.262 2.054 0.976 3.004l-9.938 7.34 3.728 11.778c0.484 1.524-1.254 2.788-2.556 1.856l-10.052-7.184-10.050 7.184c-1.302 0.93-3.036-0.332-2.556-1.856l3.728-11.778-9.938-7.34c-1.286-0.952-0.624-2.99 0.976-3.004l12.354-0.094 3.908-11.72c0.506-1.516 2.652-1.516 3.158 0z"></path>
<path fill="#f5f5f5" d="M239.924 401.002l3.908 11.72 12.354 0.094c1.6 0.014 2.262 2.054 0.976 3.004l-9.938 7.34 3.728 11.778c0.484 1.524-1.254 2.788-2.556 1.856l-10.052-7.184-10.050 7.184c-1.302 0.93-3.036-0.332-2.556-1.856l3.728-11.778-9.938-7.34c-1.286-0.952-0.624-2.99 0.976-3.004l12.354-0.094 3.908-11.72c0.506-1.518 2.652-1.518 3.158 0z"></path>
<path fill="#f5f5f5" d="M239.924 462.31l3.908 11.72 12.354 0.094c1.6 0.014 2.262 2.054 0.976 3.004l-9.938 7.34 3.728 11.778c0.484 1.524-1.254 2.788-2.556 1.856l-10.052-7.184-10.050 7.184c-1.302 0.93-3.036-0.332-2.556-1.856l3.728-11.778-9.938-7.34c-1.286-0.952-0.624-2.99 0.976-3.004l12.354-0.094 3.908-11.72c0.506-1.52 2.652-1.52 3.158 0z"></path>
<path fill="#f5f5f5" d="M287.509 247.135l3.908 11.72 12.354 0.094c1.6 0.014 2.262 2.054 0.976 3.004l-9.938 7.34 3.728 11.778c0.484 1.524-1.254 2.788-2.556 1.856l-10.050-7.184-10.050 7.184c-1.302 0.93-3.036-0.332-2.556-1.856l3.728-11.778-9.938-7.34c-1.286-0.952-0.624-2.99 0.976-3.004l12.354-0.094 3.908-11.72c0.506-1.516 2.65-1.516 3.156 0z"></path>
<path fill="#f5f5f5" d="M287.509 308.444l3.908 11.72 12.354 0.094c1.6 0.014 2.262 2.054 0.976 3.004l-9.938 7.34 3.728 11.778c0.484 1.524-1.254 2.788-2.556 1.856l-10.050-7.184-10.050 7.184c-1.302 0.93-3.036-0.33-2.556-1.856l3.728-11.778-9.938-7.34c-1.286-0.952-0.624-2.99 0.976-3.004l12.354-0.094 3.908-11.72c0.506-1.518 2.65-1.518 3.156 0z"></path>
<path fill="#f5f5f5" d="M287.509 369.752l3.908 11.72 12.354 0.094c1.6 0.014 2.262 2.054 0.976 3.004l-9.938 7.34 3.728 11.778c0.484 1.524-1.254 2.788-2.556 1.856l-10.050-7.184-10.050 7.184c-1.302 0.93-3.036-0.332-2.556-1.856l3.728-11.778-9.938-7.34c-1.286-0.952-0.624-2.99 0.976-3.004l12.354-0.094 3.908-11.72c0.506-1.518 2.65-1.518 3.156 0z"></path>
<path fill="#f5f5f5" d="M287.509 431.060l3.908 11.72 12.354 0.094c1.6 0.014 2.262 2.054 0.976 3.004l-9.938 7.34 3.728 11.778c0.484 1.524-1.254 2.788-2.556 1.856l-10.050-7.184-10.050 7.184c-1.302 0.93-3.036-0.332-2.556-1.856l3.728-11.778-9.938-7.34c-1.286-0.952-0.624-2.99 0.976-3.004l12.354-0.094 3.908-11.72c0.506-1.516 2.65-1.516 3.156 0z"></path>
<path fill="#f5f5f5" d="M335.097 217.077l3.908 11.72 12.354 0.094c1.6 0.014 2.262 2.054 0.976 3.004l-9.938 7.34 3.728 11.778c0.484 1.524-1.254 2.788-2.556 1.856l-10.050-7.184-10.050 7.184c-1.302 0.93-3.036-0.332-2.556-1.856l3.728-11.778-9.938-7.34c-1.286-0.952-0.624-2.99 0.976-3.004l12.354-0.094 3.908-11.72c0.502-1.518 2.65-1.518 3.156 0z"></path>
<path fill="#f5f5f5" d="M335.097 278.384l3.908 11.72 12.354 0.094c1.6 0.014 2.262 2.054 0.976 3.004l-9.938 7.34 3.728 11.778c0.484 1.524-1.254 2.788-2.556 1.856l-10.050-7.184-10.050 7.184c-1.302 0.93-3.036-0.332-2.556-1.856l3.728-11.778-9.938-7.34c-1.286-0.952-0.624-2.99 0.976-3.004l12.354-0.094 3.908-11.72c0.502-1.516 2.65-1.516 3.156 0z"></path>
<path fill="#f5f5f5" d="M335.097 339.692l3.908 11.72 12.354 0.094c1.6 0.014 2.262 2.054 0.976 3.004l-9.938 7.34 3.728 11.778c0.484 1.524-1.254 2.788-2.556 1.856l-10.050-7.184-10.050 7.184c-1.302 0.93-3.036-0.332-2.556-1.856l3.728-11.778-9.938-7.34c-1.286-0.952-0.624-2.99 0.976-3.004l12.354-0.094 3.908-11.72c0.502-1.516 2.65-1.516 3.156 0z"></path>
<path fill="#f5f5f5" d="M335.097 401.002l3.908 11.72 12.354 0.094c1.6 0.014 2.262 2.054 0.976 3.004l-9.938 7.34 3.728 11.778c0.484 1.524-1.254 2.788-2.556 1.856l-10.050-7.184-10.050 7.184c-1.302 0.93-3.036-0.332-2.556-1.856l3.728-11.778-9.938-7.34c-1.286-0.952-0.624-2.99 0.976-3.004l12.354-0.094 3.908-11.72c0.502-1.518 2.65-1.518 3.156 0z"></path>
<path fill="#f5f5f5" d="M335.097 462.31l3.908 11.72 12.354 0.094c1.6 0.014 2.262 2.054 0.976 3.004l-9.938 7.34 3.728 11.778c0.484 1.524-1.254 2.788-2.556 1.856l-10.050-7.184-10.050 7.184c-1.302 0.93-3.036-0.332-2.556-1.856l3.728-11.778-9.938-7.34c-1.286-0.952-0.624-2.99 0.976-3.004l12.354-0.094 3.908-11.72c0.502-1.52 2.65-1.52 3.156 0z"></path>
<path fill="#f5f5f5" d="M382.683 247.135l3.908 11.72 12.354 0.094c1.6 0.014 2.262 2.054 0.976 3.004l-9.938 7.34 3.728 11.778c0.484 1.524-1.254 2.788-2.556 1.856l-10.050-7.184-10.050 7.184c-1.302 0.93-3.036-0.332-2.556-1.856l3.728-11.778-9.938-7.34c-1.286-0.952-0.624-2.99 0.976-3.004l12.354-0.094 3.908-11.72c0.504-1.516 2.652-1.516 3.156 0z"></path>
<path fill="#f5f5f5" d="M382.683 308.444l3.908 11.72 12.354 0.094c1.6 0.014 2.262 2.054 0.976 3.004l-9.938 7.34 3.728 11.778c0.484 1.524-1.254 2.788-2.556 1.856l-10.050-7.184-10.050 7.184c-1.302 0.93-3.036-0.33-2.556-1.856l3.728-11.778-9.938-7.34c-1.286-0.952-0.624-2.99 0.976-3.004l12.354-0.094 3.908-11.72c0.504-1.518 2.652-1.518 3.156 0z"></path>
<path fill="#f5f5f5" d="M382.683 369.752l3.908 11.72 12.354 0.094c1.6 0.014 2.262 2.054 0.976 3.004l-9.938 7.34 3.728 11.778c0.484 1.524-1.254 2.788-2.556 1.856l-10.050-7.184-10.050 7.184c-1.302 0.93-3.036-0.332-2.556-1.856l3.728-11.778-9.938-7.34c-1.286-0.952-0.624-2.99 0.976-3.004l12.354-0.094 3.908-11.72c0.504-1.518 2.652-1.518 3.156 0z"></path>
<path fill="#f5f5f5" d="M382.683 431.060l3.908 11.72 12.354 0.094c1.6 0.014 2.262 2.054 0.976 3.004l-9.938 7.34 3.728 11.778c0.484 1.524-1.254 2.788-2.556 1.856l-10.050-7.184-10.050 7.184c-1.302 0.93-3.036-0.332-2.556-1.856l3.728-11.778-9.938-7.34c-1.286-0.952-0.624-2.99 0.976-3.004l12.354-0.094 3.908-11.72c0.504-1.516 2.652-1.516 3.156 0z"></path>
<path fill="#f5f5f5" d="M430.271 217.077l3.908 11.72 12.354 0.094c1.6 0.014 2.262 2.054 0.976 3.004l-9.938 7.34 3.728 11.778c0.484 1.524-1.254 2.788-2.556 1.856l-10.050-7.184-10.050 7.184c-1.302 0.93-3.036-0.332-2.556-1.856l3.728-11.778-9.938-7.34c-1.286-0.952-0.624-2.99 0.976-3.004l12.354-0.094 3.908-11.72c0.504-1.518 2.648-1.518 3.156 0z"></path>
<path fill="#f5f5f5" d="M430.271 278.384l3.908 11.72 12.354 0.094c1.6 0.014 2.262 2.054 0.976 3.004l-9.938 7.34 3.728 11.778c0.484 1.524-1.254 2.788-2.556 1.856l-10.050-7.184-10.050 7.184c-1.302 0.93-3.036-0.332-2.556-1.856l3.728-11.778-9.938-7.34c-1.286-0.952-0.624-2.99 0.976-3.004l12.354-0.094 3.908-11.72c0.504-1.516 2.648-1.516 3.156 0z"></path>
<path fill="#f5f5f5" d="M430.271 339.692l3.908 11.72 12.354 0.094c1.6 0.014 2.262 2.054 0.976 3.004l-9.938 7.34 3.728 11.778c0.484 1.524-1.254 2.788-2.556 1.856l-10.050-7.184-10.050 7.184c-1.302 0.93-3.036-0.332-2.556-1.856l3.728-11.778-9.938-7.34c-1.286-0.952-0.624-2.99 0.976-3.004l12.354-0.094 3.908-11.72c0.504-1.516 2.648-1.516 3.156 0z"></path>
<path fill="#f5f5f5" d="M430.271 401.002l3.908 11.72 12.354 0.094c1.6 0.014 2.262 2.054 0.976 3.004l-9.938 7.34 3.728 11.778c0.484 1.524-1.254 2.788-2.556 1.856l-10.050-7.184-10.050 7.184c-1.302 0.93-3.036-0.332-2.556-1.856l3.728-11.778-9.938-7.34c-1.286-0.952-0.624-2.99 0.976-3.004l12.354-0.094 3.908-11.72c0.504-1.518 2.648-1.518 3.156 0z"></path>
<path fill="#f5f5f5" d="M430.271 462.31l3.908 11.72 12.354 0.094c1.6 0.014 2.262 2.054 0.976 3.004l-9.938 7.34 3.728 11.778c0.484 1.524-1.254 2.788-2.556 1.856l-10.050-7.184-10.050 7.184c-1.302 0.93-3.036-0.332-2.556-1.856l3.728-11.778-9.938-7.34c-1.286-0.952-0.624-2.99 0.976-3.004l12.354-0.094 3.908-11.72c0.504-1.52 2.648-1.52 3.156 0z"></path>
</svg>
